<svg id="mermaid-1658455801388" width="100%" xmlns="http://www.w3.org/2000/svg" height="100%" style="max-width:1650px;" viewBox="-50 -10 1650 1711"><rect x="240" y="1388" fill="rgb(255, 200, 200)" width="1270" height="66" class="rect"></rect><rect x="225" y="852" fill="rgb(230, 255, 255)" width="1285" height="526" class="rect"></rect><style>#mermaid-1658455801388 .label{font-family:'trebuchet ms', verdana, arial;font-family:var(--mermaid-font-family);color:#333}#mermaid-1658455801388 .label text{fill:#333}#mermaid-1658455801388 .node rect,#mermaid-1658455801388 .node circle,#mermaid-1658455801388 .node ellipse,#mermaid-1658455801388 .node polygon,#mermaid-1658455801388 .node path{fill:#ECECFF;stroke:#9370db;stroke-width:1px}#mermaid-1658455801388 .node .label{text-align:center}#mermaid-1658455801388 .node.clickable{cursor:pointer}#mermaid-1658455801388 .arrowheadPath{fill:#333}#mermaid-1658455801388 .edgePath .path{stroke:#333;stroke-width:1.5px}#mermaid-1658455801388 .edgeLabel{background-color:#e8e8e8;text-align:center}#mermaid-1658455801388 .cluster rect{fill:#ffffde;stroke:#aa3;stroke-width:1px}#mermaid-1658455801388 .cluster text{fill:#333}#mermaid-1658455801388 div.mermaidTooltip{position:absolute;text-align:center;max-width:200px;padding:2px;font-family:'trebuchet ms', verdana, arial;font-family:var(--mermaid-font-family);font-size:12px;background:#ffffde;border:1px solid #aa3;border-radius:2px;pointer-events:none;z-index:100}#mermaid-1658455801388 .actor{stroke:#ccf;fill:#ECECFF}#mermaid-1658455801388 text.actor{fill:#000;stroke:none}#mermaid-1658455801388 .actor-line{stroke:grey}#mermaid-1658455801388 .messageLine0{stroke-width:1.5;stroke-dasharray:'2 2';stroke:#333}#mermaid-1658455801388 .messageLine1{stroke-width:1.5;stroke-dasharray:'2 2';stroke:#333}#mermaid-1658455801388 #arrowhead{fill:#333}#mermaid-1658455801388 .sequenceNumber{fill:#fff}#mermaid-1658455801388 #sequencenumber{fill:#333}#mermaid-1658455801388 #crosshead path{fill:#333 !important;stroke:#333 !important}#mermaid-1658455801388 .messageText{fill:#333;stroke:none}#mermaid-1658455801388 .labelBox{stroke:#ccf;fill:#ECECFF}#mermaid-1658455801388 .labelText{fill:#000;stroke:none}#mermaid-1658455801388 .loopText{fill:#000;stroke:none}#mermaid-1658455801388 .loopLine{stroke-width:2;stroke-dasharray:'2 2';stroke:#ccf}#mermaid-1658455801388 .note{stroke:#aa3;fill:#fff5ad}#mermaid-1658455801388 .noteText{fill:black;stroke:none;font-family:'trebuchet ms', verdana, arial;font-family:var(--mermaid-font-family);font-size:14px}#mermaid-1658455801388 .activation0{fill:#f4f4f4;stroke:#666}#mermaid-1658455801388 .activation1{fill:#f4f4f4;stroke:#666}#mermaid-1658455801388 .activation2{fill:#f4f4f4;stroke:#666}#mermaid-1658455801388 .mermaid-main-font{font-family:"trebuchet ms", verdana, arial;font-family:var(--mermaid-font-family)}#mermaid-1658455801388 .section{stroke:none;opacity:0.2}#mermaid-1658455801388 .section0{fill:rgba(102,102,255,0.49)}#mermaid-1658455801388 .section2{fill:#fff400}#mermaid-1658455801388 .section1,#mermaid-1658455801388 .section3{fill:#fff;opacity:0.2}#mermaid-1658455801388 .sectionTitle0{fill:#333}#mermaid-1658455801388 .sectionTitle1{fill:#333}#mermaid-1658455801388 .sectionTitle2{fill:#333}#mermaid-1658455801388 .sectionTitle3{fill:#333}#mermaid-1658455801388 .sectionTitle{text-anchor:start;font-size:11px;text-height:14px;font-family:'trebuchet ms', verdana, arial;font-family:var(--mermaid-font-family)}#mermaid-1658455801388 .grid .tick{stroke:#d3d3d3;opacity:0.8;shape-rendering:crispEdges}#mermaid-1658455801388 .grid .tick text{font-family:'trebuchet ms', verdana, arial;font-family:var(--mermaid-font-family)}#mermaid-1658455801388 .grid path{stroke-width:0}#mermaid-1658455801388 .today{fill:none;stroke:red;stroke-width:2px}#mermaid-1658455801388 .task{stroke-width:2}#mermaid-1658455801388 .taskText{text-anchor:middle;font-family:'trebuchet ms', verdana, arial;font-family:var(--mermaid-font-family)}#mermaid-1658455801388 .taskText:not([font-size]){font-size:11px}#mermaid-1658455801388 .taskTextOutsideRight{fill:#000;text-anchor:start;font-size:11px;font-family:'trebuchet ms', verdana, arial;font-family:var(--mermaid-font-family)}#mermaid-1658455801388 .taskTextOutsideLeft{fill:#000;text-anchor:end;font-size:11px}#mermaid-1658455801388 .task.clickable{cursor:pointer}#mermaid-1658455801388 .taskText.clickable{cursor:pointer;fill:#003163 !important;font-weight:bold}#mermaid-1658455801388 .taskTextOutsideLeft.clickable{cursor:pointer;fill:#003163 !important;font-weight:bold}#mermaid-1658455801388 .taskTextOutsideRight.clickable{cursor:pointer;fill:#003163 !important;font-weight:bold}#mermaid-1658455801388 .taskText0,#mermaid-1658455801388 .taskText1,#mermaid-1658455801388 .taskText2,#mermaid-1658455801388 .taskText3{fill:#fff}#mermaid-1658455801388 .task0,#mermaid-1658455801388 .task1,#mermaid-1658455801388 .task2,#mermaid-1658455801388 .task3{fill:#8a90dd;stroke:#534fbc}#mermaid-1658455801388 .taskTextOutside0,#mermaid-1658455801388 .taskTextOutside2{fill:#000}#mermaid-1658455801388 .taskTextOutside1,#mermaid-1658455801388 .taskTextOutside3{fill:#000}#mermaid-1658455801388 .active0,#mermaid-1658455801388 .active1,#mermaid-1658455801388 .active2,#mermaid-1658455801388 .active3{fill:#bfc7ff;stroke:#534fbc}#mermaid-1658455801388 .activeText0,#mermaid-1658455801388 .activeText1,#mermaid-1658455801388 .activeText2,#mermaid-1658455801388 .activeText3{fill:#000 !important}#mermaid-1658455801388 .done0,#mermaid-1658455801388 .done1,#mermaid-1658455801388 .done2,#mermaid-1658455801388 .done3{stroke:grey;fill:#d3d3d3;stroke-width:2}#mermaid-1658455801388 .doneText0,#mermaid-1658455801388 .doneText1,#mermaid-1658455801388 .doneText2,#mermaid-1658455801388 .doneText3{fill:#000 !important}#mermaid-1658455801388 .crit0,#mermaid-1658455801388 .crit1,#mermaid-1658455801388 .crit2,#mermaid-1658455801388 .crit3{stroke:#f88;fill:red;stroke-width:2}#mermaid-1658455801388 .activeCrit0,#mermaid-1658455801388 .activeCrit1,#mermaid-1658455801388 .activeCrit2,#mermaid-1658455801388 .activeCrit3{stroke:#f88;fill:#bfc7ff;stroke-width:2}#mermaid-1658455801388 .doneCrit0,#mermaid-1658455801388 .doneCrit1,#mermaid-1658455801388 .doneCrit2,#mermaid-1658455801388 .doneCrit3{stroke:#f88;fill:#d3d3d3;stroke-width:2;cursor:pointer;shape-rendering:crispEdges}#mermaid-1658455801388 .milestone{transform:rotate(45deg) scale(0.8, 0.8)}#mermaid-1658455801388 .milestoneText{font-style:italic}#mermaid-1658455801388 .doneCritText0,#mermaid-1658455801388 .doneCritText1,#mermaid-1658455801388 .doneCritText2,#mermaid-1658455801388 .doneCritText3{fill:#000 !important}#mermaid-1658455801388 .activeCritText0,#mermaid-1658455801388 .activeCritText1,#mermaid-1658455801388 .activeCritText2,#mermaid-1658455801388 .activeCritText3{fill:#000 !important}#mermaid-1658455801388 .titleText{text-anchor:middle;font-size:18px;fill:#000;font-family:'trebuchet ms', verdana, arial;font-family:var(--mermaid-font-family)}#mermaid-1658455801388 g.classGroup text{fill:#9370db;stroke:none;font-family:'trebuchet ms', verdana, arial;font-family:var(--mermaid-font-family);font-size:10px}#mermaid-1658455801388 g.classGroup text .title{font-weight:bolder}#mermaid-1658455801388 g.clickable{cursor:pointer}#mermaid-1658455801388 g.classGroup rect{fill:#ECECFF;stroke:#9370db}#mermaid-1658455801388 g.classGroup line{stroke:#9370db;stroke-width:1}#mermaid-1658455801388 .classLabel .box{stroke:none;stroke-width:0;fill:#ECECFF;opacity:0.5}#mermaid-1658455801388 .classLabel .label{fill:#9370db;font-size:10px}#mermaid-1658455801388 .relation{stroke:#9370db;stroke-width:1;fill:none}#mermaid-1658455801388 .dashed-line{stroke-dasharray:3}#mermaid-1658455801388 #compositionStart{fill:#9370db;stroke:#9370db;stroke-width:1}#mermaid-1658455801388 #compositionEnd{fill:#9370db;stroke:#9370db;stroke-width:1}#mermaid-1658455801388 #aggregationStart{fill:#ECECFF;stroke:#9370db;stroke-width:1}#mermaid-1658455801388 #aggregationEnd{fill:#ECECFF;stroke:#9370db;stroke-width:1}#mermaid-1658455801388 #dependencyStart{fill:#9370db;stroke:#9370db;stroke-width:1}#mermaid-1658455801388 #dependencyEnd{fill:#9370db;stroke:#9370db;stroke-width:1}#mermaid-1658455801388 #extensionStart{fill:#9370db;stroke:#9370db;stroke-width:1}#mermaid-1658455801388 #extensionEnd{fill:#9370db;stroke:#9370db;stroke-width:1}#mermaid-1658455801388 .commit-id,#mermaid-1658455801388 .commit-msg,#mermaid-1658455801388 .branch-label{fill:lightgrey;color:lightgrey;font-family:'trebuchet ms', verdana, arial;font-family:var(--mermaid-font-family)}#mermaid-1658455801388 .pieTitleText{text-anchor:middle;font-size:25px;fill:#000;font-family:'trebuchet ms', verdana, arial;font-family:var(--mermaid-font-family)}#mermaid-1658455801388 .slice{font-family:'trebuchet ms', verdana, arial;font-family:var(--mermaid-font-family)}#mermaid-1658455801388 g.stateGroup text{fill:#9370db;stroke:none;font-size:10px;font-family:'trebuchet ms', verdana, arial;font-family:var(--mermaid-font-family)}#mermaid-1658455801388 g.stateGroup text{fill:#9370db;stroke:none;font-size:10px}#mermaid-1658455801388 g.stateGroup .state-title{font-weight:bolder;fill:#000}#mermaid-1658455801388 g.stateGroup rect{fill:#ECECFF;stroke:#9370db}#mermaid-1658455801388 g.stateGroup line{stroke:#9370db;stroke-width:1}#mermaid-1658455801388 .transition{stroke:#9370db;stroke-width:1;fill:none}#mermaid-1658455801388 .stateGroup .composit{fill:white;border-bottom:1px}#mermaid-1658455801388 .stateGroup .alt-composit{fill:#e0e0e0;border-bottom:1px}#mermaid-1658455801388 .state-note{stroke:#aa3;fill:#fff5ad}#mermaid-1658455801388 .state-note text{fill:black;stroke:none;font-size:10px}#mermaid-1658455801388 .stateLabel .box{stroke:none;stroke-width:0;fill:#ECECFF;opacity:0.5}#mermaid-1658455801388 .stateLabel text{fill:#000;font-size:10px;font-weight:bold;font-family:'trebuchet ms', verdana, arial;font-family:var(--mermaid-font-family)}:root{--mermaid-font-family: '"trebuchet ms", verdana, arial';--mermaid-font-family: "Comic Sans MS", "Comic Sans", cursive}

:root { --mermaid-font-family: "trebuchet ms", verdana, arial;}</style><style>#mermaid-1658455801388 {
    color: rgb(0, 0, 0);
    font: 16px "trebuchet ms", verdana, arial;
  }</style><g></g><g><line id="actor0" x1="75" y1="5" x2="75" y2="1700" class="actor-line" stroke-width="0.5px" stroke="#999"></line><rect x="0" y="0" fill="#eaeaea" stroke="#666" width="150" height="65" rx="3" ry="3" class="actor"></rect><text x="75" y="32.5" dominant-baseline="central" alignment-baseline="central" class="actor" style="text-anchor: middle; font-size: 14px;"><tspan x="75" dy="0">MapView</tspan></text></g><g><line id="actor1" x1="275" y1="5" x2="275" y2="1700" class="actor-line" stroke-width="0.5px" stroke="#999"></line><rect x="200" y="0" fill="#eaeaea" stroke="#666" width="150" height="65" rx="3" ry="3" class="actor"></rect><text x="275" y="32.5" dominant-baseline="central" alignment-baseline="central" class="actor" style="text-anchor: middle; font-size: 14px;"><tspan x="275" dy="0">TextElementsRenderer</tspan></text></g><g><line id="actor2" x1="475" y1="5" x2="475" y2="1700" class="actor-line" stroke-width="0.5px" stroke="#999"></line><rect x="400" y="0" fill="#eaeaea" stroke="#666" width="150" height="65" rx="3" ry="3" class="actor"></rect><text x="475" y="32.5" dominant-baseline="central" alignment-baseline="central" class="actor" style="text-anchor: middle; font-size: 14px;"><tspan x="475" dy="0">TextElementStateCache</tspan></text></g><g><line id="actor3" x1="675" y1="5" x2="675" y2="1700" class="actor-line" stroke-width="0.5px" stroke="#999"></line><rect x="600" y="0" fill="#eaeaea" stroke="#666" width="150" height="65" rx="3" ry="3" class="actor"></rect><text x="675" y="32.5" dominant-baseline="central" alignment-baseline="central" class="actor" style="text-anchor: middle; font-size: 14px;"><tspan x="675" dy="0">TextElementGroupState</tspan></text></g><g><line id="actor4" x1="875" y1="5" x2="875" y2="1700" class="actor-line" stroke-width="0.5px" stroke="#999"></line><rect x="800" y="0" fill="#eaeaea" stroke="#666" width="150" height="65" rx="3" ry="3" class="actor"></rect><text x="875" y="32.5" dominant-baseline="central" alignment-baseline="central" class="actor" style="text-anchor: middle; font-size: 14px;"><tspan x="875" dy="0">TextElementState</tspan></text></g><g><line id="actor5" x1="1075" y1="5" x2="1075" y2="1700" class="actor-line" stroke-width="0.5px" stroke="#999"></line><rect x="1000" y="0" fill="#eaeaea" stroke="#666" width="150" height="65" rx="3" ry="3" class="actor"></rect><text x="1075" y="32.5" dominant-baseline="central" alignment-baseline="central" class="actor" style="text-anchor: middle; font-size: 14px;"><tspan x="1075" dy="0">TextCanvas</tspan></text></g><g><line id="actor6" x1="1275" y1="5" x2="1275" y2="1700" class="actor-line" stroke-width="0.5px" stroke="#999"></line><rect x="1200" y="0" fill="#eaeaea" stroke="#666" width="150" height="65" rx="3" ry="3" class="actor"></rect><text x="1275" y="32.5" dominant-baseline="central" alignment-baseline="central" class="actor" style="text-anchor: middle; font-size: 14px;"><tspan x="1275" dy="0">PoiRenderer</tspan></text></g><g><line id="actor7" x1="1475" y1="5" x2="1475" y2="1700" class="actor-line" stroke-width="0.5px" stroke="#999"></line><rect x="1400" y="0" fill="#eaeaea" stroke="#666" width="150" height="65" rx="3" ry="3" class="actor"></rect><text x="1475" y="32.5" dominant-baseline="central" alignment-baseline="central" class="actor" style="text-anchor: middle; font-size: 14px;"><tspan x="1475" dy="0">FontCatalog</tspan></text></g><defs><marker id="arrowhead" refX="5" refY="2" markerWidth="6" markerHeight="4" orient="auto"><path d="M 0,0 V 4 L6,2 Z"></path></marker></defs><defs><marker id="crosshead" markerWidth="15" markerHeight="8" orient="auto" refX="16" refY="4"><path fill="black" stroke="#000000" stroke-width="1px" d="M 9,2 V 6 L16,4 Z" style="stroke-dasharray: 0, 0;"></path><path fill="none" stroke="#000000" stroke-width="1px" d="M 0,1 L 6,7 M 6,1 L 0,7" style="stroke-dasharray: 0, 0;"></path></marker></defs><defs><marker id="sequencenumber" refX="15" refY="15" markerWidth="60" markerHeight="40" orient="auto"><circle cx="15" cy="15" r="6"></circle></marker></defs><g><text x="175" y="93" class="messageText" style="text-anchor: middle;">placeText(tileList)</text><line x1="75" y1="100" x2="275" y2="100" class="messageLine0" stroke-width="2" stroke="black" marker-end="url(#arrowhead)" style="fill: none;"></line></g><g><text x="375" y="153" class="messageText" style="text-anchor: middle;">clearVisited()</text><line x1="275" y1="160" x2="475" y2="160" class="messageLine0" stroke-width="2" stroke="black" marker-end="url(#arrowhead)" style="fill: none;"></line></g><g><rect x="200" y="170" fill="#EDF2AE" stroke="#666" width="150" height="36" rx="0" ry="0" class="note"></rect><text x="196" y="194" class="noteText"><tspan x="216">updateTextElements:</tspan></text></g><g><text x="375" y="259" class="messageText" style="text-anchor: middle;">getOrSet(textElementGroup)</text><line x1="275" y1="266" x2="475" y2="266" class="messageLine0" stroke-width="2" stroke="black" marker-end="url(#arrowhead)" style="fill: none;"></line></g><g><text x="575" y="294" class="messageText" style="text-anchor: middle;">updateElements()</text><line x1="475" y1="301" x2="675" y2="301" class="messageLine0" stroke-width="2" stroke="black" marker-end="url(#arrowhead)" style="fill: none;"></line></g><g><text x="475" y="354" class="messageText" style="text-anchor: middle;">checkReadyForPlacement(textElementState)</text><line x1="675" y1="361" x2="275" y2="361" class="messageLine0" stroke-width="2" stroke="black" marker-end="url(#arrowhead)" style="fill: none;"></line></g><g><text x="375" y="389" class="messageText" style="text-anchor: middle;">cameraDistance</text><line x1="275" y1="396" x2="475" y2="396" class="messageLine1" stroke-width="2" stroke="black" marker-end="url(#arrowhead)" style="stroke-dasharray: 3, 3; fill: none;"></line></g><g><text x="375" y="449" class="messageText" style="text-anchor: middle;">deduplicateElement(textElementState)</text><line x1="275" y1="456" x2="475" y2="456" class="messageLine0" stroke-width="2" stroke="black" marker-end="url(#arrowhead)" style="fill: none;"></line></g><g><text x="375" y="484" class="messageText" style="text-anchor: middle;">deduplicated</text><line x1="475" y1="491" x2="275" y2="491" class="messageLine1" stroke-width="2" stroke="black" marker-end="url(#arrowhead)" style="stroke-dasharray: 3, 3; fill: none;"></line></g><g><text x="675" y="544" class="messageText" style="text-anchor: middle;">cameraDistance = undefined</text><path d="M 675,551 C 735,541 735,581 675,571" class="messageLine1" stroke-width="2" stroke="black" marker-end="url(#arrowhead)" style="stroke-dasharray: 3, 3; fill: none;"></path></g><g><line x1="563.015625" y1="501" x2="786.984375" y2="501" class="loopLine"></line><line x1="786.984375" y1="501" x2="786.984375" y2="591" class="loopLine"></line><line x1="563.015625" y1="591" x2="786.984375" y2="591" class="loopLine"></line><line x1="563.015625" y1="501" x2="563.015625" y2="591" class="loopLine"></line><polygon points="563.015625,501 613.015625,501 613.015625,514 604.615625,521 563.015625,521" class="labelBox"></polygon><text x="570.515625" y="516" class="labelText"><tspan x="570.515625">opt</tspan></text><text x="675" y="516" class="loopText" style="text-anchor: middle;"><tspan x="675">[ not deduplicated ]</tspan></text></g><g><line x1="265" y1="406" x2="796.984375" y2="406" class="loopLine"></line><line x1="796.984375" y1="406" x2="796.984375" y2="601" class="loopLine"></line><line x1="265" y1="601" x2="796.984375" y2="601" class="loopLine"></line><line x1="265" y1="406" x2="265" y2="601" class="loopLine"></line><polygon points="265,406 315,406 315,419 306.6,426 265,426" class="labelBox"></polygon><text x="272.5" y="421" class="labelText"><tspan x="272.5">opt</tspan></text><text x="530.9921875" y="421" class="loopText" style="text-anchor: middle;"><tspan x="530.9921875">[ cameraDistance !== undefined ]</tspan></text></g><g><text x="775" y="629" class="messageText" style="text-anchor: middle;">update(cameraDistance)</text><line x1="675" y1="636" x2="875" y2="636" class="messageLine0" stroke-width="2" stroke="black" marker-end="url(#arrowhead)" style="fill: none;"></line></g><g><line x1="255" y1="311" x2="885" y2="311" class="loopLine"></line><line x1="885" y1="311" x2="885" y2="646" class="loopLine"></line><line x1="255" y1="646" x2="885" y2="646" class="loopLine"></line><line x1="255" y1="311" x2="255" y2="646" class="loopLine"></line><polygon points="255,311 305,311 305,324 296.6,331 255,331" class="labelBox"></polygon><text x="262.5" y="326" class="labelText"><tspan x="262.5">loop</tspan></text><text x="570" y="326" class="loopText" style="text-anchor: middle;"><tspan x="570">[ every TextElementState ]</tspan></text></g><g><line x1="245" y1="216" x2="895" y2="216" class="loopLine"></line><line x1="895" y1="216" x2="895" y2="656" class="loopLine"></line><line x1="245" y1="656" x2="895" y2="656" class="loopLine"></line><line x1="245" y1="216" x2="245" y2="656" class="loopLine"></line><polygon points="245,216 295,216 295,229 286.6,236 245,236" class="labelBox"></polygon><text x="252.5" y="231" class="labelText"><tspan x="252.5">loop</tspan></text><text x="570" y="231" class="loopText" style="text-anchor: middle;"><tspan x="570">[ every TextElementGroup ]</tspan></text></g><g><line x1="190" y1="110" x2="905" y2="110" class="loopLine"></line><line x1="905" y1="110" x2="905" y2="666" class="loopLine"></line><line x1="190" y1="666" x2="905" y2="666" class="loopLine"></line><line x1="190" y1="110" x2="190" y2="666" class="loopLine"></line><polygon points="190,110 240,110 240,123 231.6,130 190,130" class="labelBox"></polygon><text x="197.5" y="125" class="labelText"><tspan x="197.5">opt</tspan></text><text x="547.5" y="125" class="loopText" style="text-anchor: middle;"><tspan x="547.5">[ cache invalid ]</tspan></text></g><g><text x="375" y="694" class="messageText" style="text-anchor: middle;">update(time)</text><line x1="275" y1="701" x2="475" y2="701" class="messageLine0" stroke-width="2" stroke="black" marker-end="url(#arrowhead)" style="fill: none;"></line></g><g><rect x="200" y="711" fill="#EDF2AE" stroke="#666" width="150" height="36" rx="0" ry="0" class="note"></rect><text x="196" y="735" class="noteText"><tspan x="216">placeTextElements:</tspan></text></g><g><text x="375" y="775" class="messageText" style="text-anchor: middle;">sortedGroupStates()</text><line x1="275" y1="782" x2="475" y2="782" class="messageLine0" stroke-width="2" stroke="black" marker-end="url(#arrowhead)" style="fill: none;"></line></g><g><text x="375" y="810" class="messageText" style="text-anchor: middle;">groupStates</text><line x1="475" y1="817" x2="275" y2="817" class="messageLine1" stroke-width="2" stroke="black" marker-end="url(#arrowhead)" style="stroke-dasharray: 3, 3; fill: none;"></line></g><g><rect x="250" y="872" fill="#EDF2AE" stroke="#666" width="1250" height="36" rx="0" ry="0" class="note"></rect><text x="246" y="896" class="noteText"><tspan x="266">Persistent Labels Pass:</tspan></text></g><g><text x="875" y="961" class="messageText" style="text-anchor: middle;">getGlyphs(text)</text><line x1="275" y1="968" x2="1475" y2="968" class="messageLine0" stroke-width="2" stroke="black" marker-end="url(#arrowhead)" style="fill: none;"></line></g><g><text x="875" y="996" class="messageText" style="text-anchor: middle;">glyphData[]</text><line x1="1475" y1="1003" x2="275" y2="1003" class="messageLine1" stroke-width="2" stroke="black" marker-end="url(#arrowhead)" style="stroke-dasharray: 3, 3; fill: none;"></line></g><g><text x="675" y="1081" class="messageText" style="text-anchor: middle;">addTextBufferObject(textBufferObject)</text><line x1="275" y1="1088" x2="1075" y2="1088" class="messageLine0" stroke-width="2" stroke="black" marker-end="url(#arrowhead)" style="fill: none;"></line></g><g><text x="775" y="1116" class="messageText" style="text-anchor: middle;">renderPoi(poiInfo)</text><line x1="275" y1="1123" x2="1275" y2="1123" class="messageLine0" stroke-width="2" stroke="black" marker-end="url(#arrowhead)" style="fill: none;"></line></g><g><line x1="265" y1="1038" x2="1285" y2="1038" class="loopLine"></line><line x1="1285" y1="1038" x2="1285" y2="1133" class="loopLine"></line><line x1="265" y1="1133" x2="1285" y2="1133" class="loopLine"></line><line x1="265" y1="1038" x2="265" y2="1133" class="loopLine"></line><polygon points="265,1038 315,1038 315,1051 306.6,1058 265,1058" class="labelBox"></polygon><text x="272.5" y="1053" class="labelText"><tspan x="272.5">opt</tspan></text><text x="775" y="1053" class="loopText" style="text-anchor: middle;"><tspan x="775">[ placement ok ]</tspan></text></g><g><text x="675" y="1206" class="messageText" style="text-anchor: middle;">addText(glyphData[])</text><line x1="275" y1="1213" x2="1075" y2="1213" class="messageLine0" stroke-width="2" stroke="black" marker-end="url(#arrowhead)" style="fill: none;"></line></g><g><line x1="265" y1="1163" x2="1085" y2="1163" class="loopLine"></line><line x1="1085" y1="1163" x2="1085" y2="1223" class="loopLine"></line><line x1="265" y1="1223" x2="1085" y2="1223" class="loopLine"></line><line x1="265" y1="1163" x2="265" y2="1223" class="loopLine"></line><polygon points="265,1163 315,1163 315,1176 306.6,1183 265,1183" class="labelBox"></polygon><text x="272.5" y="1178" class="labelText"><tspan x="272.5">opt</tspan></text><text x="675" y="1178" class="loopText" style="text-anchor: middle;"><tspan x="675">[ placement ok ]</tspan></text></g><g><text x="775" y="1321" class="messageText" style="text-anchor: middle;">renderPoi(poiInfo)</text><line x1="275" y1="1328" x2="1275" y2="1328" class="messageLine0" stroke-width="2" stroke="black" marker-end="url(#arrowhead)" style="fill: none;"></line></g><g><line x1="265" y1="1278" x2="1285" y2="1278" class="loopLine"></line><line x1="1285" y1="1278" x2="1285" y2="1338" class="loopLine"></line><line x1="265" y1="1338" x2="1285" y2="1338" class="loopLine"></line><line x1="265" y1="1278" x2="265" y2="1338" class="loopLine"></line><polygon points="265,1278 315,1278 315,1291 306.6,1298 265,1298" class="labelBox"></polygon><text x="272.5" y="1293" class="labelText"><tspan x="272.5">opt</tspan></text><text x="775" y="1293" class="loopText" style="text-anchor: middle;"><tspan x="775">[ placement ok ]</tspan></text></g><g><line x1="255" y1="1253" x2="1295" y2="1253" class="loopLine"></line><line x1="1295" y1="1253" x2="1295" y2="1348" class="loopLine"></line><line x1="255" y1="1348" x2="1295" y2="1348" class="loopLine"></line><line x1="255" y1="1253" x2="255" y2="1348" class="loopLine"></line><polygon points="255,1253 305,1253 305,1266 296.6,1273 255,1273" class="labelBox"></polygon><text x="262.5" y="1268" class="labelText"><tspan x="262.5">loop</tspan></text><text x="775" y="1268" class="loopText" style="text-anchor: middle;"><tspan x="775">[ every marker ]</tspan></text></g><g><line x1="245" y1="1013" x2="1305" y2="1013" class="loopLine"></line><line x1="1305" y1="1013" x2="1305" y2="1358" class="loopLine"></line><line x1="245" y1="1358" x2="1305" y2="1358" class="loopLine"></line><line x1="245" y1="1013" x2="245" y2="1358" class="loopLine"></line><line x1="245" y1="1143" x2="1305" y2="1143" class="loopLine" style="stroke-dasharray: 3, 3;"></line><line x1="245" y1="1233" x2="1305" y2="1233" class="loopLine" style="stroke-dasharray: 3, 3;"></line><polygon points="245,1013 295,1013 295,1026 286.6,1033 245,1033" class="labelBox"></polygon><text x="252.5" y="1028" class="labelText"><tspan x="252.5">alt</tspan></text><text x="775" y="1028" class="loopText" style="text-anchor: middle;"><tspan x="775">[ PointLabel ]</tspan></text><text x="775" y="1158" class="loopText" style="text-anchor: middle;"><tspan x="775">[ PathLabel ]</tspan></text><text x="775" y="1248" class="loopText" style="text-anchor: middle;"><tspan x="775">[ LineMarker ]</tspan></text></g><g><line x1="235" y1="918" x2="1485" y2="918" class="loopLine"></line><line x1="1485" y1="918" x2="1485" y2="1368" class="loopLine"></line><line x1="235" y1="1368" x2="1485" y2="1368" class="loopLine"></line><line x1="235" y1="918" x2="235" y2="1368" class="loopLine"></line><polygon points="235,918 285,918 285,931 276.6,938 235,938" class="labelBox"></polygon><text x="242.5" y="933" class="labelText"><tspan x="242.5">loop</tspan></text><text x="860" y="933" class="loopText" style="text-anchor: middle;"><tspan x="860">[ every ready,visible and persistent TextElement ]</tspan></text></g><g><rect x="250" y="1408" fill="#EDF2AE" stroke="#666" width="1250" height="36" rx="0" ry="0" class="note"></rect><text x="246" y="1432" class="noteText"><tspan x="266">New Labels Pass...</tspan></text></g><g><line x1="215" y1="827" x2="1520" y2="827" class="loopLine"></line><line x1="1520" y1="827" x2="1520" y2="1464" class="loopLine"></line><line x1="215" y1="1464" x2="1520" y2="1464" class="loopLine"></line><line x1="215" y1="827" x2="215" y2="1464" class="loopLine"></line><polygon points="215,827 265,827 265,840 256.6,847 215,847" class="labelBox"></polygon><text x="222.5" y="842" class="labelText"><tspan x="222.5">loop</tspan></text><text x="867.5" y="842" class="loopText" style="text-anchor: middle;"><tspan x="867.5">[ every priority ]</tspan></text></g><g><rect x="200" y="1474" fill="#EDF2AE" stroke="#666" width="150" height="36" rx="0" ry="0" class="note"></rect><text x="196" y="1498" class="noteText"><tspan x="216">overlay label placement...</tspan></text></g><g><text x="175" y="1538" class="messageText" style="text-anchor: middle;">renderText(screenCamera)</text><line x1="75" y1="1545" x2="275" y2="1545" class="messageLine0" stroke-width="2" stroke="black" marker-end="url(#arrowhead)" style="fill: none;"></line></g><g><text x="675" y="1598" class="messageText" style="text-anchor: middle;">render(screenCamera)</text><line x1="275" y1="1605" x2="1075" y2="1605" class="messageLine0" stroke-width="2" stroke="black" marker-end="url(#arrowhead)" style="fill: none;"></line></g><g><line x1="265" y1="1555" x2="1085" y2="1555" class="loopLine"></line><line x1="1085" y1="1555" x2="1085" y2="1615" class="loopLine"></line><line x1="265" y1="1615" x2="1085" y2="1615" class="loopLine"></line><line x1="265" y1="1555" x2="265" y2="1615" class="loopLine"></line><polygon points="265,1555 315,1555 315,1568 306.6,1575 265,1575" class="labelBox"></polygon><text x="272.5" y="1570" class="labelText"><tspan x="272.5">loop</tspan></text><text x="675" y="1570" class="loopText" style="text-anchor: middle;"><tspan x="675">[ every textCanvas ]</tspan></text></g><g><rect x="0" y="1635" fill="#eaeaea" stroke="#666" width="150" height="65" rx="3" ry="3" class="actor"></rect><text x="75" y="1667.5" dominant-baseline="central" alignment-baseline="central" class="actor" style="text-anchor: middle; font-size: 14px;"><tspan x="75" dy="0">MapView</tspan></text></g><g><rect x="200" y="1635" fill="#eaeaea" stroke="#666" width="150" height="65" rx="3" ry="3" class="actor"></rect><text x="275" y="1667.5" dominant-baseline="central" alignment-baseline="central" class="actor" style="text-anchor: middle; font-size: 14px;"><tspan x="275" dy="0">TextElementsRenderer</tspan></text></g><g><rect x="400" y="1635" fill="#eaeaea" stroke="#666" width="150" height="65" rx="3" ry="3" class="actor"></rect><text x="475" y="1667.5" dominant-baseline="central" alignment-baseline="central" class="actor" style="text-anchor: middle; font-size: 14px;"><tspan x="475" dy="0">TextElementStateCache</tspan></text></g><g><rect x="600" y="1635" fill="#eaeaea" stroke="#666" width="150" height="65" rx="3" ry="3" class="actor"></rect><text x="675" y="1667.5" dominant-baseline="central" alignment-baseline="central" class="actor" style="text-anchor: middle; font-size: 14px;"><tspan x="675" dy="0">TextElementGroupState</tspan></text></g><g><rect x="800" y="1635" fill="#eaeaea" stroke="#666" width="150" height="65" rx="3" ry="3" class="actor"></rect><text x="875" y="1667.5" dominant-baseline="central" alignment-baseline="central" class="actor" style="text-anchor: middle; font-size: 14px;"><tspan x="875" dy="0">TextElementState</tspan></text></g><g><rect x="1000" y="1635" fill="#eaeaea" stroke="#666" width="150" height="65" rx="3" ry="3" class="actor"></rect><text x="1075" y="1667.5" dominant-baseline="central" alignment-baseline="central" class="actor" style="text-anchor: middle; font-size: 14px;"><tspan x="1075" dy="0">TextCanvas</tspan></text></g><g><rect x="1200" y="1635" fill="#eaeaea" stroke="#666" width="150" height="65" rx="3" ry="3" class="actor"></rect><text x="1275" y="1667.5" dominant-baseline="central" alignment-baseline="central" class="actor" style="text-anchor: middle; font-size: 14px;"><tspan x="1275" dy="0">PoiRenderer</tspan></text></g><g><rect x="1400" y="1635" fill="#eaeaea" stroke="#666" width="150" height="65" rx="3" ry="3" class="actor"></rect><text x="1475" y="1667.5" dominant-baseline="central" alignment-baseline="central" class="actor" style="text-anchor: middle; font-size: 14px;"><tspan x="1475" dy="0">FontCatalog</tspan></text></g></svg>