<svg id="mermaid-1658455802691" width="2111.24609375" xmlns="http://www.w3.org/2000/svg" height="630" viewBox="-10 -10 1414.1640625 610"><style>#mermaid-1658455802691 .label{font-family:'trebuchet ms', verdana, arial;font-family:var(--mermaid-font-family);color:#333}#mermaid-1658455802691 .label text{fill:#333}#mermaid-1658455802691 .node rect,#mermaid-1658455802691 .node circle,#mermaid-1658455802691 .node ellipse,#mermaid-1658455802691 .node polygon,#mermaid-1658455802691 .node path{fill:#ECECFF;stroke:#9370db;stroke-width:1px}#mermaid-1658455802691 .node .label{text-align:center}#mermaid-1658455802691 .node.clickable{cursor:pointer}#mermaid-1658455802691 .arrowheadPath{fill:#333}#mermaid-1658455802691 .edgePath .path{stroke:#333;stroke-width:1.5px}#mermaid-1658455802691 .edgeLabel{background-color:#e8e8e8;text-align:center}#mermaid-1658455802691 .cluster rect{fill:#ffffde;stroke:#aa3;stroke-width:1px}#mermaid-1658455802691 .cluster text{fill:#333}#mermaid-1658455802691 div.mermaidTooltip{position:absolute;text-align:center;max-width:200px;padding:2px;font-family:'trebuchet ms', verdana, arial;font-family:var(--mermaid-font-family);font-size:12px;background:#ffffde;border:1px solid #aa3;border-radius:2px;pointer-events:none;z-index:100}#mermaid-1658455802691 .actor{stroke:#ccf;fill:#ECECFF}#mermaid-1658455802691 text.actor{fill:#000;stroke:none}#mermaid-1658455802691 .actor-line{stroke:grey}#mermaid-1658455802691 .messageLine0{stroke-width:1.5;stroke-dasharray:'2 2';stroke:#333}#mermaid-1658455802691 .messageLine1{stroke-width:1.5;stroke-dasharray:'2 2';stroke:#333}#mermaid-1658455802691 #arrowhead{fill:#333}#mermaid-1658455802691 .sequenceNumber{fill:#fff}#mermaid-1658455802691 #sequencenumber{fill:#333}#mermaid-1658455802691 #crosshead path{fill:#333 !important;stroke:#333 !important}#mermaid-1658455802691 .messageText{fill:#333;stroke:none}#mermaid-1658455802691 .labelBox{stroke:#ccf;fill:#ECECFF}#mermaid-1658455802691 .labelText{fill:#000;stroke:none}#mermaid-1658455802691 .loopText{fill:#000;stroke:none}#mermaid-1658455802691 .loopLine{stroke-width:2;stroke-dasharray:'2 2';stroke:#ccf}#mermaid-1658455802691 .note{stroke:#aa3;fill:#fff5ad}#mermaid-1658455802691 .noteText{fill:black;stroke:none;font-family:'trebuchet ms', verdana, arial;font-family:var(--mermaid-font-family);font-size:14px}#mermaid-1658455802691 .activation0{fill:#f4f4f4;stroke:#666}#mermaid-1658455802691 .activation1{fill:#f4f4f4;stroke:#666}#mermaid-1658455802691 .activation2{fill:#f4f4f4;stroke:#666}#mermaid-1658455802691 .mermaid-main-font{font-family:"trebuchet ms", verdana, arial;font-family:var(--mermaid-font-family)}#mermaid-1658455802691 .section{stroke:none;opacity:0.2}#mermaid-1658455802691 .section0{fill:rgba(102,102,255,0.49)}#mermaid-1658455802691 .section2{fill:#fff400}#mermaid-1658455802691 .section1,#mermaid-1658455802691 .section3{fill:#fff;opacity:0.2}#mermaid-1658455802691 .sectionTitle0{fill:#333}#mermaid-1658455802691 .sectionTitle1{fill:#333}#mermaid-1658455802691 .sectionTitle2{fill:#333}#mermaid-1658455802691 .sectionTitle3{fill:#333}#mermaid-1658455802691 .sectionTitle{text-anchor:start;font-size:11px;text-height:14px;font-family:'trebuchet ms', verdana, arial;font-family:var(--mermaid-font-family)}#mermaid-1658455802691 .grid .tick{stroke:#d3d3d3;opacity:0.8;shape-rendering:crispEdges}#mermaid-1658455802691 .grid .tick text{font-family:'trebuchet ms', verdana, arial;font-family:var(--mermaid-font-family)}#mermaid-1658455802691 .grid path{stroke-width:0}#mermaid-1658455802691 .today{fill:none;stroke:red;stroke-width:2px}#mermaid-1658455802691 .task{stroke-width:2}#mermaid-1658455802691 .taskText{text-anchor:middle;font-family:'trebuchet ms', verdana, arial;font-family:var(--mermaid-font-family)}#mermaid-1658455802691 .taskText:not([font-size]){font-size:11px}#mermaid-1658455802691 .taskTextOutsideRight{fill:#000;text-anchor:start;font-size:11px;font-family:'trebuchet ms', verdana, arial;font-family:var(--mermaid-font-family)}#mermaid-1658455802691 .taskTextOutsideLeft{fill:#000;text-anchor:end;font-size:11px}#mermaid-1658455802691 .task.clickable{cursor:pointer}#mermaid-1658455802691 .taskText.clickable{cursor:pointer;fill:#003163 !important;font-weight:bold}#mermaid-1658455802691 .taskTextOutsideLeft.clickable{cursor:pointer;fill:#003163 !important;font-weight:bold}#mermaid-1658455802691 .taskTextOutsideRight.clickable{cursor:pointer;fill:#003163 !important;font-weight:bold}#mermaid-1658455802691 .taskText0,#mermaid-1658455802691 .taskText1,#mermaid-1658455802691 .taskText2,#mermaid-1658455802691 .taskText3{fill:#fff}#mermaid-1658455802691 .task0,#mermaid-1658455802691 .task1,#mermaid-1658455802691 .task2,#mermaid-1658455802691 .task3{fill:#8a90dd;stroke:#534fbc}#mermaid-1658455802691 .taskTextOutside0,#mermaid-1658455802691 .taskTextOutside2{fill:#000}#mermaid-1658455802691 .taskTextOutside1,#mermaid-1658455802691 .taskTextOutside3{fill:#000}#mermaid-1658455802691 .active0,#mermaid-1658455802691 .active1,#mermaid-1658455802691 .active2,#mermaid-1658455802691 .active3{fill:#bfc7ff;stroke:#534fbc}#mermaid-1658455802691 .activeText0,#mermaid-1658455802691 .activeText1,#mermaid-1658455802691 .activeText2,#mermaid-1658455802691 .activeText3{fill:#000 !important}#mermaid-1658455802691 .done0,#mermaid-1658455802691 .done1,#mermaid-1658455802691 .done2,#mermaid-1658455802691 .done3{stroke:grey;fill:#d3d3d3;stroke-width:2}#mermaid-1658455802691 .doneText0,#mermaid-1658455802691 .doneText1,#mermaid-1658455802691 .doneText2,#mermaid-1658455802691 .doneText3{fill:#000 !important}#mermaid-1658455802691 .crit0,#mermaid-1658455802691 .crit1,#mermaid-1658455802691 .crit2,#mermaid-1658455802691 .crit3{stroke:#f88;fill:red;stroke-width:2}#mermaid-1658455802691 .activeCrit0,#mermaid-1658455802691 .activeCrit1,#mermaid-1658455802691 .activeCrit2,#mermaid-1658455802691 .activeCrit3{stroke:#f88;fill:#bfc7ff;stroke-width:2}#mermaid-1658455802691 .doneCrit0,#mermaid-1658455802691 .doneCrit1,#mermaid-1658455802691 .doneCrit2,#mermaid-1658455802691 .doneCrit3{stroke:#f88;fill:#d3d3d3;stroke-width:2;cursor:pointer;shape-rendering:crispEdges}#mermaid-1658455802691 .milestone{transform:rotate(45deg) scale(0.8, 0.8)}#mermaid-1658455802691 .milestoneText{font-style:italic}#mermaid-1658455802691 .doneCritText0,#mermaid-1658455802691 .doneCritText1,#mermaid-1658455802691 .doneCritText2,#mermaid-1658455802691 .doneCritText3{fill:#000 !important}#mermaid-1658455802691 .activeCritText0,#mermaid-1658455802691 .activeCritText1,#mermaid-1658455802691 .activeCritText2,#mermaid-1658455802691 .activeCritText3{fill:#000 !important}#mermaid-1658455802691 .titleText{text-anchor:middle;font-size:18px;fill:#000;font-family:'trebuchet ms', verdana, arial;font-family:var(--mermaid-font-family)}#mermaid-1658455802691 g.classGroup text{fill:#9370db;stroke:none;font-family:'trebuchet ms', verdana, arial;font-family:var(--mermaid-font-family);font-size:10px}#mermaid-1658455802691 g.classGroup text .title{font-weight:bolder}#mermaid-1658455802691 g.clickable{cursor:pointer}#mermaid-1658455802691 g.classGroup rect{fill:#ECECFF;stroke:#9370db}#mermaid-1658455802691 g.classGroup line{stroke:#9370db;stroke-width:1}#mermaid-1658455802691 .classLabel .box{stroke:none;stroke-width:0;fill:#ECECFF;opacity:0.5}#mermaid-1658455802691 .classLabel .label{fill:#9370db;font-size:10px}#mermaid-1658455802691 .relation{stroke:#9370db;stroke-width:1;fill:none}#mermaid-1658455802691 .dashed-line{stroke-dasharray:3}#mermaid-1658455802691 #compositionStart{fill:#9370db;stroke:#9370db;stroke-width:1}#mermaid-1658455802691 #compositionEnd{fill:#9370db;stroke:#9370db;stroke-width:1}#mermaid-1658455802691 #aggregationStart{fill:#ECECFF;stroke:#9370db;stroke-width:1}#mermaid-1658455802691 #aggregationEnd{fill:#ECECFF;stroke:#9370db;stroke-width:1}#mermaid-1658455802691 #dependencyStart{fill:#9370db;stroke:#9370db;stroke-width:1}#mermaid-1658455802691 #dependencyEnd{fill:#9370db;stroke:#9370db;stroke-width:1}#mermaid-1658455802691 #extensionStart{fill:#9370db;stroke:#9370db;stroke-width:1}#mermaid-1658455802691 #extensionEnd{fill:#9370db;stroke:#9370db;stroke-width:1}#mermaid-1658455802691 .commit-id,#mermaid-1658455802691 .commit-msg,#mermaid-1658455802691 .branch-label{fill:lightgrey;color:lightgrey;font-family:'trebuchet ms', verdana, arial;font-family:var(--mermaid-font-family)}#mermaid-1658455802691 .pieTitleText{text-anchor:middle;font-size:25px;fill:#000;font-family:'trebuchet ms', verdana, arial;font-family:var(--mermaid-font-family)}#mermaid-1658455802691 .slice{font-family:'trebuchet ms', verdana, arial;font-family:var(--mermaid-font-family)}#mermaid-1658455802691 g.stateGroup text{fill:#9370db;stroke:none;font-size:10px;font-family:'trebuchet ms', verdana, arial;font-family:var(--mermaid-font-family)}#mermaid-1658455802691 g.stateGroup text{fill:#9370db;stroke:none;font-size:10px}#mermaid-1658455802691 g.stateGroup .state-title{font-weight:bolder;fill:#000}#mermaid-1658455802691 g.stateGroup rect{fill:#ECECFF;stroke:#9370db}#mermaid-1658455802691 g.stateGroup line{stroke:#9370db;stroke-width:1}#mermaid-1658455802691 .transition{stroke:#9370db;stroke-width:1;fill:none}#mermaid-1658455802691 .stateGroup .composit{fill:white;border-bottom:1px}#mermaid-1658455802691 .stateGroup .alt-composit{fill:#e0e0e0;border-bottom:1px}#mermaid-1658455802691 .state-note{stroke:#aa3;fill:#fff5ad}#mermaid-1658455802691 .state-note text{fill:black;stroke:none;font-size:10px}#mermaid-1658455802691 .stateLabel .box{stroke:none;stroke-width:0;fill:#ECECFF;opacity:0.5}#mermaid-1658455802691 .stateLabel text{fill:#000;font-size:10px;font-weight:bold;font-family:'trebuchet ms', verdana, arial;font-family:var(--mermaid-font-family)}:root{--mermaid-font-family: '"trebuchet ms", verdana, arial';--mermaid-font-family: "Comic Sans MS", "Comic Sans", cursive}

:root { --mermaid-font-family: "trebuchet ms", verdana, arial;}</style><style>#mermaid-1658455802691 {
    color: rgb(0, 0, 0);
    font: 16px "trebuchet ms", verdana, arial;
  }</style><g></g><defs><marker id="extensionStart" class="extension" refX="0" refY="7" markerWidth="190" markerHeight="240" orient="auto"><path d="M 1,7 L18,13 V 1 Z"></path></marker></defs><defs><marker id="extensionEnd" refX="19" refY="7" markerWidth="20" markerHeight="28" orient="auto"><path d="M 1,1 V 13 L18,7 Z"></path></marker></defs><defs><marker id="compositionStart" class="extension" refX="0" refY="7" markerWidth="190" markerHeight="240" orient="auto"><path d="M 18,7 L9,13 L1,7 L9,1 Z"></path></marker></defs><defs><marker id="compositionEnd" refX="19" refY="7" markerWidth="20" markerHeight="28" orient="auto"><path d="M 18,7 L9,13 L1,7 L9,1 Z"></path></marker></defs><defs><marker id="aggregationStart" class="extension" refX="0" refY="7" markerWidth="190" markerHeight="240" orient="auto"><path d="M 18,7 L9,13 L1,7 L9,1 Z"></path></marker></defs><defs><marker id="aggregationEnd" refX="19" refY="7" markerWidth="20" markerHeight="28" orient="auto"><path d="M 18,7 L9,13 L1,7 L9,1 Z"></path></marker></defs><defs><marker id="dependencyStart" class="extension" refX="0" refY="7" markerWidth="190" markerHeight="240" orient="auto"><path d="M 5,7 L9,13 L1,7 L9,1 Z"></path></marker></defs><defs><marker id="dependencyEnd" refX="19" refY="7" markerWidth="20" markerHeight="28" orient="auto"><path d="M 18,7 L9,13 L14,7 L9,1 Z"></path></marker></defs><g id="classid-TextElement-0" class="classGroup " transform="translate(1063.703125,320 )"><rect x="0" y="0" width="68.875" height="30"></rect><text y="15" x="0"><tspan class="title" x="5">TextElement</tspan></text><line x1="0" y1="21" y2="21" x2="68.875"></line><text x="5" y="31" fill="white" class="classText"></text><line x1="0" y1="26" y2="26" x2="68.875"></line><text x="5" y="41" fill="white" class="classText"></text></g><g id="classid-TextElementGroup-1" class="classGroup " transform="translate(1049.4375,240 )"><rect x="0" y="0" width="97.40625" height="30"></rect><text y="15" x="0"><tspan class="title" x="5">TextElementGroup</tspan></text><line x1="0" y1="21" y2="21" x2="97.40625"></line><text x="5" y="31" fill="white" class="classText"></text><line x1="0" y1="26" y2="26" x2="97.40625"></line><text x="5" y="41" fill="white" class="classText"></text></g><g id="classid-TextElementState-2" class="classGroup " transform="translate(892.7890625,240 )"><rect x="0" y="0" width="93.21875" height="30"></rect><text y="15" x="0"><tspan class="title" x="5">TextElementState</tspan></text><line x1="0" y1="21" y2="21" x2="93.21875"></line><text x="5" y="31" fill="white" class="classText"></text><line x1="0" y1="26" y2="26" x2="93.21875"></line><text x="5" y="41" fill="white" class="classText"></text></g><g id="classid-TextElementGroupState-3" class="classGroup " transform="translate(1027.34375,160 )"><rect x="0" y="0" width="121.59375" height="30"></rect><text y="15" x="0"><tspan class="title" x="5">TextElementGroupState</tspan></text><line x1="0" y1="21" y2="21" x2="121.59375"></line><text x="5" y="31" fill="white" class="classText"></text><line x1="0" y1="26" y2="26" x2="121.59375"></line><text x="5" y="41" fill="white" class="classText"></text></g><g id="classid-TextElementStateCache-4" class="classGroup " transform="translate(986.6796875,80 )"><rect x="0" y="0" width="121.453125" height="30"></rect><text y="15" x="0"><tspan class="title" x="5">TextElementStateCache</tspan></text><line x1="0" y1="21" y2="21" x2="121.453125"></line><text x="5" y="31" fill="white" class="classText"></text><line x1="0" y1="26" y2="26" x2="121.453125"></line><text x="5" y="41" fill="white" class="classText"></text></g><g id="classid-TextElementsRenderer-5" class="classGroup " transform="translate(380.078125,0 )"><rect x="0" y="0" width="117.484375" height="30"></rect><text y="15" x="0"><tspan class="title" x="5">TextElementsRenderer</tspan></text><line x1="0" y1="21" y2="21" x2="117.484375"></line><text x="5" y="31" fill="white" class="classText"></text><line x1="0" y1="26" y2="26" x2="117.484375"></line><text x="5" y="41" fill="white" class="classText"></text></g><g id="classid-TextCanvasRenderer-6" class="classGroup " transform="translate(385.3984375,80 )"><rect x="0" y="0" width="106.84375" height="30"></rect><text y="15" x="0"><tspan class="title" x="5">TextCanvasRenderer</tspan></text><line x1="0" y1="21" y2="21" x2="106.84375"></line><text x="5" y="31" fill="white" class="classText"></text><line x1="0" y1="26" y2="26" x2="106.84375"></line><text x="5" y="41" fill="white" class="classText"></text></g><g id="classid-TextCanvas-7" class="classGroup " transform="translate(560.125,160 )"><rect x="0" y="0" width="63.203125" height="30"></rect><text y="15" x="0"><tspan class="title" x="5">TextCanvas</tspan></text><line x1="0" y1="21" y2="21" x2="63.203125"></line><text x="5" y="31" fill="white" class="classText"></text><line x1="0" y1="26" y2="26" x2="63.203125"></line><text x="5" y="41" fill="white" class="classText"></text></g><g id="classid-FontCatalog-8" class="classGroup " transform="translate(306.75,320 )"><rect x="0" y="0" width="65.265625" height="30"></rect><text y="15" x="0"><tspan class="title" x="5">FontCatalog</tspan></text><line x1="0" y1="21" y2="21" x2="65.265625"></line><text x="5" y="31" fill="white" class="classText"></text><line x1="0" y1="26" y2="26" x2="65.265625"></line><text x="5" y="41" fill="white" class="classText"></text></g><g id="classid-PoiRenderer-9" class="classGroup " transform="translate(177.66796875,160 )"><rect x="0" y="0" width="68.375" height="30"></rect><text y="15" x="0"><tspan class="title" x="5">PoiRenderer</tspan></text><line x1="0" y1="21" y2="21" x2="68.375"></line><text x="5" y="31" fill="white" class="classText"></text><line x1="0" y1="26" y2="26" x2="68.375"></line><text x="5" y="41" fill="white" class="classText"></text></g><g id="classid-PoiManager-10" class="classGroup " transform="translate(0,160 )"><rect x="0" y="0" width="63.828125" height="30"></rect><text y="15" x="0"><tspan class="title" x="5">PoiManager</tspan></text><line x1="0" y1="21" y2="21" x2="63.828125"></line><text x="5" y="31" fill="white" class="classText"></text><line x1="0" y1="26" y2="26" x2="63.828125"></line><text x="5" y="41" fill="white" class="classText"></text></g><g id="classid-ScreenCollisions-11" class="classGroup " transform="translate(66.9140625,80 )"><rect x="0" y="0" width="86.421875" height="30"></rect><text y="15" x="0"><tspan class="title" x="5">ScreenCollisions</tspan></text><line x1="0" y1="21" y2="21" x2="86.421875"></line><text x="5" y="31" fill="white" class="classText"></text><line x1="0" y1="26" y2="26" x2="86.421875"></line><text x="5" y="41" fill="white" class="classText"></text></g><g id="classid-TextStyleCache-12" class="classGroup " transform="translate(1300.34375,320 )"><rect x="0" y="0" width="81.859375" height="30"></rect><text y="15" x="0"><tspan class="title" x="5">TextStyleCache</tspan></text><line x1="0" y1="21" y2="21" x2="81.859375"></line><text x="5" y="31" fill="white" class="classText"></text><line x1="0" y1="26" y2="26" x2="81.859375"></line><text x="5" y="41" fill="white" class="classText"></text></g><g id="classid-Theme-13" class="classGroup " transform="translate(770.3984375,320 )"><rect x="0" y="0" width="42.390625" height="30"></rect><text y="15" x="0"><tspan class="title" x="5">Theme</tspan></text><line x1="0" y1="21" y2="21" x2="42.390625"></line><text x="5" y="31" fill="white" class="classText"></text><line x1="0" y1="26" y2="26" x2="42.390625"></line><text x="5" y="41" fill="white" class="classText"></text></g><g id="classid-TextStyleDefinition-14" class="classGroup " transform="translate(1011.6953125,400 )"><rect x="0" y="0" width="99.703125" height="30"></rect><text y="15" x="0"><tspan class="title" x="5">TextStyleDefinition</tspan></text><line x1="0" y1="21" y2="21" x2="99.703125"></line><text x="5" y="31" fill="white" class="classText"></text><line x1="0" y1="26" y2="26" x2="99.703125"></line><text x="5" y="41" fill="white" class="classText"></text></g><g id="classid-TextRenderStyle-15" class="classGroup " transform="translate(1171.6171875,400 )"><rect x="0" y="0" width="87.203125" height="30"></rect><text y="15" x="0"><tspan class="title" x="5">TextRenderStyle</tspan></text><line x1="0" y1="21" y2="21" x2="87.203125"></line><text x="5" y="31" fill="white" class="classText"></text><line x1="0" y1="26" y2="26" x2="87.203125"></line><text x="5" y="41" fill="white" class="classText"></text></g><g id="classid-TextLayoutStyle-16" class="classGroup " transform="translate(1308.8203125,400 )"><rect x="0" y="0" width="85.34375" height="30"></rect><text y="15" x="0"><tspan class="title" x="5">TextLayoutStyle</tspan></text><line x1="0" y1="21" y2="21" x2="85.34375"></line><text x="5" y="31" fill="white" class="classText"></text><line x1="0" y1="26" y2="26" x2="85.34375"></line><text x="5" y="41" fill="white" class="classText"></text></g><g id="classid-PoiRenderBuffer-17" class="classGroup " transform="translate(186.51953125,240 )"><rect x="0" y="0" width="87.640625" height="30"></rect><text y="15" x="0"><tspan class="title" x="5">PoiRenderBuffer</tspan></text><line x1="0" y1="21" y2="21" x2="87.640625"></line><text x="5" y="31" fill="white" class="classText"></text><line x1="0" y1="26" y2="26" x2="87.640625"></line><text x="5" y="41" fill="white" class="classText"></text></g><g id="classid-PoiInfo-18" class="classGroup " transform="translate(10.6953125,240 )"><rect x="0" y="0" width="42.4375" height="30"></rect><text y="15" x="0"><tspan class="title" x="5">PoiInfo</tspan></text><line x1="0" y1="21" y2="21" x2="42.4375"></line><text x="5" y="31" fill="white" class="classText"></text><line x1="0" y1="26" y2="26" x2="42.4375"></line><text x="5" y="41" fill="white" class="classText"></text></g><g id="classid-PoiRenderBufferBatch-19" class="classGroup " transform="translate(22.1171875,320 )"><rect x="0" y="0" width="113.265625" height="30"></rect><text y="15" x="0"><tspan class="title" x="5">PoiRenderBufferBatch</tspan></text><line x1="0" y1="21" y2="21" x2="113.265625"></line><text x="5" y="31" fill="white" class="classText"></text><line x1="0" y1="26" y2="26" x2="113.265625"></line><text x="5" y="41" fill="white" class="classText"></text></g><g id="classid-BoxBuffer-20" class="classGroup " transform="translate(50.1796875,400 )"><rect x="0" y="0" width="57.140625" height="30"></rect><text y="15" x="0"><tspan class="title" x="5">BoxBuffer</tspan></text><line x1="0" y1="21" y2="21" x2="57.140625"></line><text x="5" y="31" fill="white" class="classText"></text><line x1="0" y1="26" y2="26" x2="57.140625"></line><text x="5" y="41" fill="white" class="classText"></text></g><g id="classid-BoxBufferMesh-21" class="classGroup " transform="translate(72.984375,480 )"><rect x="0" y="0" width="79.921875" height="30"></rect><text y="15" x="0"><tspan class="title" x="5">BoxBufferMesh</tspan></text><line x1="0" y1="21" y2="21" x2="79.921875"></line><text x="5" y="31" fill="white" class="classText"></text><line x1="0" y1="26" y2="26" x2="79.921875"></line><text x="5" y="41" fill="white" class="classText"></text></g><g id="classid-IconMaterial-22" class="classGroup " transform="translate(89.171875,560 )"><rect x="0" y="0" width="67.546875" height="30"></rect><text y="15" x="0"><tspan class="title" x="5">IconMaterial</tspan></text><line x1="0" y1="21" y2="21" x2="67.546875"></line><text x="5" y="31" fill="white" class="classText"></text><line x1="0" y1="26" y2="26" x2="67.546875"></line><text x="5" y="41" fill="white" class="classText"></text></g><g id="classid-THREE_RawShaderMaterial-23" class="classGroup " transform="translate(380.92578125,480 )"><rect x="0" y="0" width="135.84375" height="30"></rect><text y="15" x="0"><tspan class="title" x="5">THREE_RawShaderMaterial</tspan></text><line x1="0" y1="21" y2="21" x2="135.84375"></line><text x="5" y="31" fill="white" class="classText"></text><line x1="0" y1="26" y2="26" x2="135.84375"></line><text x="5" y="41" fill="white" class="classText"></text></g><g id="classid-THREE_BufferGeometry-24" class="classGroup " transform="translate(447.48828125,560 )"><rect x="0" y="0" width="122.28125" height="30"></rect><text y="15" x="0"><tspan class="title" x="5">THREE_BufferGeometry</tspan></text><line x1="0" y1="21" y2="21" x2="122.28125"></line><text x="5" y="31" fill="white" class="classText"></text><line x1="0" y1="26" y2="26" x2="122.28125"></line><text x="5" y="41" fill="white" class="classText"></text></g><g id="classid-THREE_Mesh-25" class="classGroup " transform="translate(593.16796875,400 )"><rect x="0" y="0" width="69.8125" height="30"></rect><text y="15" x="0"><tspan class="title" x="5">THREE_Mesh</tspan></text><line x1="0" y1="21" y2="21" x2="69.8125"></line><text x="5" y="31" fill="white" class="classText"></text><line x1="0" y1="26" y2="26" x2="69.8125"></line><text x="5" y="41" fill="white" class="classText"></text></g><g id="classid-LineTypesetter-26" class="classGroup " transform="translate(374.3828125,240 )"><rect x="0" y="0" width="81.171875" height="30"></rect><text y="15" x="0"><tspan class="title" x="5">LineTypesetter</tspan></text><line x1="0" y1="21" y2="21" x2="81.171875"></line><text x="5" y="31" fill="white" class="classText"></text><line x1="0" y1="26" y2="26" x2="81.171875"></line><text x="5" y="41" fill="white" class="classText"></text></g><g id="classid-PathTypesetter-27" class="classGroup " transform="translate(505.5546875,240 )"><rect x="0" y="0" width="81.640625" height="30"></rect><text y="15" x="0"><tspan class="title" x="5">PathTypesetter</tspan></text><line x1="0" y1="21" y2="21" x2="81.640625"></line><text x="5" y="31" fill="white" class="classText"></text><line x1="0" y1="26" y2="26" x2="81.640625"></line><text x="5" y="41" fill="white" class="classText"></text></g><g id="classid-TextCanvasLayer-28" class="classGroup " transform="translate(637.1953125,240 )"><rect x="0" y="0" width="89.453125" height="30"></rect><text y="15" x="0"><tspan class="title" x="5">TextCanvasLayer</tspan></text><line x1="0" y1="21" y2="21" x2="89.453125"></line><text x="5" y="31" fill="white" class="classText"></text><line x1="0" y1="26" y2="26" x2="89.453125"></line><text x="5" y="41" fill="white" class="classText"></text></g><g id="classid-TextGeometry-29" class="classGroup " transform="translate(643.4453125,320 )"><rect x="0" y="0" width="76.953125" height="30"></rect><text y="15" x="0"><tspan class="title" x="5">TextGeometry</tspan></text><line x1="0" y1="21" y2="21" x2="76.953125"></line><text x="5" y="31" fill="white" class="classText"></text><line x1="0" y1="26" y2="26" x2="76.953125"></line><text x="5" y="41" fill="white" class="classText"></text></g><g id="classid-SdfTextMaterial-30" class="classGroup " transform="translate(619.76953125,560 )"><rect x="0" y="0" width="82.9375" height="30"></rect><text y="15" x="0"><tspan class="title" x="5">SdfTextMaterial</tspan></text><line x1="0" y1="21" y2="21" x2="82.9375"></line><text x="5" y="31" fill="white" class="classText"></text><line x1="0" y1="26" y2="26" x2="82.9375"></line><text x="5" y="41" fill="white" class="classText"></text></g><g id="classid-GlyphData-31" class="classGroup " transform="translate(775.03515625,400 )"><rect x="0" y="0" width="57.8125" height="30"></rect><text y="15" x="0"><tspan class="title" x="5">GlyphData</tspan></text><line x1="0" y1="21" y2="21" x2="57.8125"></line><text x="5" y="31" fill="white" class="classText"></text><line x1="0" y1="26" y2="26" x2="57.8125"></line><text x="5" y="41" fill="white" class="classText"></text></g><g id="classid-DuplicateCache-32" class="classGroup " transform="translate(888.0234375,160 )"><rect x="0" y="0" width="82.75" height="30"></rect><text y="15" x="0"><tspan class="title" x="5">DuplicateCache</tspan></text><line x1="0" y1="21" y2="21" x2="82.75"></line><text x="5" y="31" fill="white" class="classText"></text><line x1="0" y1="26" y2="26" x2="82.75"></line><text x="5" y="41" fill="white" class="classText"></text></g><path d="M380.078125,20.7745180861685L322.05078125,26.47876507180708C264.0234375,32.183012057445666,147.96875,43.591506028722826,89.94140625,55.96241968102808C31.9140625,68.33333333333333,31.9140625,81.66666666666667,31.9140625,95C31.9140625,108.33333333333333,31.9140625,121.66666666666667,31.9140625,132.5C31.9140625,143.33333333333334,31.9140625,151.66666666666666,31.9140625,155.83333333333334L31.9140625,160" id="edge0" class="relation" marker-end="url(#dependencyEnd)"></path><path d="M31.9140625,190L31.9140625,194.16666666666666C31.9140625,198.33333333333334,31.9140625,206.66666666666666,31.9140625,215C31.9140625,223.33333333333334,31.9140625,231.66666666666666,31.9140625,235.83333333333334L31.9140625,240" id="edge1" class="relation" marker-end="url(#dependencyEnd)"></path><g class="classLabel"><rect class="box" x="14.921875" y="203.5" width="34.53125" height="16"></rect><text class="label" x="31.9140625" y="215" fill="red" text-anchor="middle">create</text></g><path d="M380.078125,22.148527559242268L335.0859375,27.623772966035222C290.09375,33.099018372828176,200.109375,44.04950918641409,155.1171875,53.691421259873714C110.125,63.333333333333336,110.125,71.66666666666667,110.125,75.83333333333333L110.125,80" id="edge2" class="relation" marker-end="url(#dependencyEnd)"></path><path d="M438.8203125,30L438.8203125,34.166666666666664C438.8203125,38.333333333333336,438.8203125,46.666666666666664,438.8203125,55C438.8203125,63.333333333333336,438.8203125,71.66666666666667,438.8203125,75.83333333333333L438.8203125,80" id="edge3" class="relation" marker-end="url(#dependencyEnd)"></path><g class="cardinality"><text class="type2" x="448.8203125" y="67.5" fill="black" font-size="6"># font catalogs</text></g><path d="M385.3984375,104.4150043887579L356.474609375,109.51250365729824C327.55078125,114.6100029258386,269.703125,124.8050014629193,240.779296875,134.06916739812632C211.85546875,143.33333333333334,211.85546875,151.66666666666666,211.85546875,155.83333333333334L211.85546875,160" id="edge4" class="relation" marker-end="url(#dependencyEnd)"></path><path d="M492.2421875,108.97506642141835L508.8229166666667,113.31255535118196C525.4036458333334,117.65004428094556,558.5651041666666,126.32502214047277,575.1458333333334,134.82917773690306C591.7265625,143.33333333333334,591.7265625,151.66666666666666,591.7265625,155.83333333333334L591.7265625,160" id="edge5" class="relation" marker-end="url(#dependencyEnd)"></path><path d="M190.28564453125,190L184.29402669270834,194.16666666666666C178.30240885416666,198.33333333333334,166.31917317708334,206.66666666666666,143.46036783854166,216.34450116996382C120.6015625,226.02233567326098,86.8671875,237.04467134652202,70,242.55583918315253L53.1328125,248.06700701978303" id="edge6" class="relation" marker-end="url(#dependencyEnd)"></path><g class="classLabel"><rect class="box" x="107.171875" y="213.21875" width="34.859375" height="16.015625"></rect><text class="label" x="124.54561013619141" y="224.73366152537972" fill="red" text-anchor="middle">render</text></g><path d="M218.787109375,190L220.71256510416666,194.16666666666666C222.63802083333334,198.33333333333334,226.48893229166666,206.66666666666666,228.41438802083334,215C230.33984375,223.33333333333334,230.33984375,231.66666666666666,230.33984375,235.83333333333334L230.33984375,240" id="edge7" class="relation" marker-end="url(#dependencyEnd)"></path><path d="M230.33984375,270L230.33984375,274.1666666666667C230.33984375,278.3333333333333,230.33984375,286.6666666666667,214.513671875,295.00938404583366C198.6875,303.3521014250006,167.03515625,311.7042028500013,151.208984375,315.8802535625016L135.3828125,320.05630427500193" id="edge8" class="relation" marker-end="url(#dependencyEnd)"></path><g class="cardinality"><text class="type2" x="150.02049468268115" y="326.5361391740421" fill="black" font-size="6"># icon textures</text></g><path d="M78.75,350L78.75,354.1666666666667C78.75,358.3333333333333,78.75,366.6666666666667,78.75,375C78.75,383.3333333333333,78.75,391.6666666666667,78.75,395.8333333333333L78.75,400" id="edge9" class="relation" marker-end="url(#dependencyEnd)"></path><path d="M31.9140625,270L31.9140625,274.1666666666667C31.9140625,278.3333333333333,31.9140625,286.6666666666667,36.792805989583336,295C41.671549479166664,303.3333333333333,51.429036458333336,311.6666666666667,56.307779947916664,315.8333333333333L61.1865234375,320" id="edge10" class="relation" marker-end="url(#dependencyEnd)"></path><g class="classLabel"><rect class="box" x="6.796875" y="287.875" width="60.5" height="16.015625"></rect><text class="label" x="37.04505106551446" y="299.38209532200733" fill="red" text-anchor="middle">has assigned</text></g><path d="M78.75,430L78.75,434.1666666666667C78.75,438.3333333333333,78.75,446.6666666666667,82.31201171875,455C85.8740234375,463.3333333333333,92.998046875,471.6666666666667,96.56005859375,475.8333333333333L100.1220703125,480" id="edge11" class="relation" marker-end="url(#dependencyEnd)"></path><path d="M109.1953125,510L108.15364583333333,514.1666666666666C107.11197916666667,518.3333333333334,105.02864583333333,526.6666666666666,106.0703125,535C107.11197916666667,543.3333333333334,111.27864583333333,551.6666666666666,113.36197916666667,555.8333333333334L115.4453125,560" id="edge12" class="relation" marker-end="url(#dependencyEnd)"></path><path d="M403.24267578125,510L390.5746256510417,514.1666666666666C377.9065755208333,518.3333333333334,352.5704752604167,526.6666666666666,311.483154296875,536.3978546024705C270.3958333333333,546.1290425382742,213.55729166666666,557.2580850765485,185.13802083333334,562.8226063456856L156.71875,568.3871276148227" id="edge13" class="relation" marker-start="url(#extensionStart)"></path><path d="M152.90625,503.97900072411295L175.916015625,509.1491672700941C198.92578125,514.3193338160753,244.9453125,524.6596669080376,294.0423177083333,534.6238705189722C343.1393229166667,544.5880741299069,395.3138020833333,554.1761482598137,421.4010416666667,558.970185324767L447.48828125,563.7642223897204" id="edge14" class="relation" marker-end="url(#dependencyEnd)"></path><path d="M593.16796875,420.1832195008773L554.0891927083334,425.9860162507311C515.0104166666666,431.7888130005849,436.8528645833333,443.39440650029246,363.4759114583333,454.779816000231C290.0989583333333,466.1652255001695,221.50260416666666,477.33045100033905,187.20442708333334,482.9130637504238L152.90625,488.49567650050864" id="edge15" class="relation" marker-start="url(#extensionStart)"></path><path d="M560.125,180.00928792569658L523.3346354166666,185.84107327141382C486.5442708333333,191.67285861713106,412.9635416666667,203.3364293085655,376.1731770833333,215.83488132094942C339.3828125,228.33333333333334,339.3828125,241.66666666666666,339.3828125,255C339.3828125,268.3333333333333,339.3828125,281.6666666666667,339.3828125,292.5C339.3828125,303.3333333333333,339.3828125,311.6666666666667,339.3828125,315.8333333333333L339.3828125,320" id="edge16" class="relation" marker-end="url(#dependencyEnd)"></path><path d="M560.125,182.15138121546963L535.9322916666666,187.62615101289134C511.7395833333333,193.1009208103131,463.3541666666667,204.05046040515654,439.1614583333333,213.69189686924494C414.96875,223.33333333333334,414.96875,231.66666666666666,414.96875,235.83333333333334L414.96875,240" id="edge17" class="relation" marker-end="url(#dependencyEnd)"></path><path d="M574.7197265625,190L569.99560546875,194.16666666666666C565.271484375,198.33333333333334,555.8232421875,206.66666666666666,551.09912109375,215C546.375,223.33333333333334,546.375,231.66666666666666,546.375,235.83333333333334L546.375,240" id="edge18" class="relation" marker-end="url(#dependencyEnd)"></path><path d="M623.328125,189.0147249891728L633.09375,193.34560415764403C642.859375,197.6764833261152,662.390625,206.3382416630576,672.15625,214.8357874981955C681.921875,223.33333333333334,681.921875,231.66666666666666,681.921875,235.83333333333334L681.921875,240" id="edge19" class="relation" marker-end="url(#dependencyEnd)"></path><g class="cardinality"><text class="type2" x="691.921875" y="227.5" fill="black" font-size="6">*</text></g><path d="M681.921875,270L681.921875,274.1666666666667C681.921875,278.3333333333333,681.921875,286.6666666666667,681.921875,295C681.921875,303.3333333333333,681.921875,311.6666666666667,681.921875,315.8333333333333L681.921875,320" id="edge20" class="relation" marker-end="url(#dependencyEnd)"></path><path d="M681.921875,350L681.921875,354.1666666666667C681.921875,358.3333333333333,681.921875,366.6666666666667,676.312744140625,375C670.70361328125,383.3333333333333,659.4853515625,391.6666666666667,653.876220703125,395.8333333333333L648.26708984375,400" id="edge21" class="relation" marker-end="url(#dependencyEnd)"></path><g class="classLabel"><rect class="box" x="651.59375" y="368.53125" width="47.078125" height="16.015625"></rect><text class="label" x="675.1288800783201" y="380.04608400420767" fill="red" text-anchor="middle">text &amp; bg</text></g><g class="cardinality"><text class="type2" x="664.264620296829" y="400.5736021293637" fill="black" font-size="6">2</text></g><path d="M599.4599609375,430L591.5115559895834,434.1666666666667C583.5631510416666,438.3333333333333,567.6663411458334,446.6666666666667,559.7179361979166,457.5C551.76953125,468.3333333333333,551.76953125,481.6666666666667,551.76953125,495C551.76953125,508.3333333333333,551.76953125,521.6666666666666,547.2757161458334,532.5C542.7819010416666,543.3333333333334,533.7942708333334,551.6666666666666,529.3004557291666,555.8333333333334L524.806640625,560" id="edge22" class="relation" marker-end="url(#dependencyEnd)"></path><g class="cardinality"><text class="type1" x="586.0674677022043" y="431.3751817852781" fill="black" font-size="6">2</text></g><path d="M648.0107421875,430L653.5486653645834,434.1666666666667C659.0865885416666,438.3333333333333,670.1624348958334,446.6666666666667,675.7003580729166,457.5C681.23828125,468.3333333333333,681.23828125,481.6666666666667,681.23828125,495C681.23828125,508.3333333333333,681.23828125,521.6666666666666,679.1549479166666,532.5C677.0716145833334,543.3333333333334,672.9049479166666,551.6666666666666,670.8216145833334,555.8333333333334L668.73828125,560" id="edge23" class="relation" marker-end="url(#dependencyEnd)"></path><g class="classLabel"><rect class="box" x="657.703125" y="476.671875" width="47.078125" height="16.015625"></rect><text class="label" x="681.23828125" y="488.1843850095372" fill="red" text-anchor="middle">text &amp; bg</text></g><g class="cardinality"><text class="type2" x="683.2727231037487" y="553.2917960675005" fill="black" font-size="6">2</text></g><path d="M448.84765625,510L448.84765625,514.1666666666666C448.84765625,518.3333333333334,448.84765625,526.6666666666666,477.3346354166667,536.1983496407464C505.8216145833333,545.7300326148262,562.7955729166666,556.4600652296525,591.2825520833334,561.8250815370657L619.76953125,567.1900978444788" id="edge24" class="relation" marker-start="url(#extensionStart)"></path><path d="M623.328125,179.93653893092505L660.73828125,185.7804491091042C698.1484375,191.62435928728337,772.96875,203.31217964364168,810.37890625,215.8227564884875C847.7890625,228.33333333333334,847.7890625,241.66666666666666,847.7890625,255C847.7890625,268.3333333333333,847.7890625,281.6666666666667,847.7890625,295C847.7890625,308.3333333333333,847.7890625,321.6666666666667,847.7890625,335C847.7890625,348.3333333333333,847.7890625,361.6666666666667,843.2215983072916,372.5C838.6541341145834,383.3333333333333,829.5192057291666,391.6666666666667,824.9517415364584,395.8333333333333L820.38427734375,400" id="edge25" class="relation" marker-end="url(#dependencyEnd)"></path><g class="classLabel"><rect class="box" x="815.5625" y="201.171875" width="34.84375" height="16.015625"></rect><text class="label" x="832.925164256328" y="212.67808277374905" fill="red" text-anchor="middle">render</text></g><path d="M339.3828125,350L339.3828125,354.1666666666667C339.3828125,358.3333333333333,339.3828125,366.6666666666667,411.9915364583333,377.08517970407615C484.6002604166667,387.5036927414856,629.8177083333334,400.00738548297136,702.4264322916666,406.2592318537142L775.03515625,412.51107822445704" id="edge26" class="relation dashed-line" marker-end="url(#dependencyEnd)"></path><g class="classLabel"><rect class="box" x="527.765625" y="381.171875" width="34.53125" height="16.015625"></rect><text class="label" x="544.7550643623666" y="392.6832162508988" fill="red" text-anchor="middle">create</text></g><path d="M497.5625,18.860896802269604L589.203125,24.884080668558003C680.84375,30.907264534846405,864.125,42.953632267423195,955.765625,53.14348280037827C1047.40625,63.333333333333336,1047.40625,71.66666666666667,1047.40625,75.83333333333333L1047.40625,80" id="edge27" class="relation" marker-end="url(#dependencyEnd)"></path><path d="M1003.1533203125,110L990.86083984375,114.16666666666667C978.568359375,118.33333333333333,953.9833984375,126.66666666666667,941.69091796875,135C929.3984375,143.33333333333334,929.3984375,151.66666666666666,929.3984375,155.83333333333334L929.3984375,160" id="edge28" class="relation" marker-end="url(#dependencyEnd)"></path><path d="M929.3984375,190L929.3984375,194.16666666666666C929.3984375,198.33333333333334,929.3984375,206.66666666666666,930.4401041666666,215C931.4817708333334,223.33333333333334,933.5651041666666,231.66666666666666,934.6067708333334,235.83333333333334L935.6484375,240" id="edge29" class="relation" marker-end="url(#dependencyEnd)"></path><g class="classLabel"><rect class="box" x="882.625" y="203.859375" width="93.734375" height="16.015625"></rect><text class="label" x="929.4917421870458" y="215.37321874818332" fill="red" text-anchor="middle">by text or featureId</text></g><path d="M1062.681640625,110L1066.9248046875,114.16666666666667C1071.16796875,118.33333333333333,1079.654296875,126.66666666666667,1083.8974609375,135C1088.140625,143.33333333333334,1088.140625,151.66666666666666,1088.140625,155.83333333333334L1088.140625,160" id="edge30" class="relation" marker-start="url(#compositionStart)"></path><path d="M1060.89453125,190L1053.326171875,194.16666666666666C1045.7578125,198.33333333333334,1030.62109375,206.66666666666666,1015.1271158854166,215C999.6331380208334,223.33333333333334,983.7819010416666,231.66666666666666,975.8562825520834,235.83333333333334L967.9306640625,240" id="edge31" class="relation" marker-start="url(#compositionStart)"></path><path d="M1091.890625,190L1092.9322916666667,194.16666666666666C1093.9739583333333,198.33333333333334,1096.0572916666667,206.66666666666666,1097.0989583333333,215C1098.140625,223.33333333333334,1098.140625,231.66666666666666,1098.140625,235.83333333333334L1098.140625,240" id="edge32" class="relation" marker-end="url(#dependencyEnd)"></path><path d="M1098.140625,270L1098.140625,274.1666666666667C1098.140625,278.3333333333333,1098.140625,286.6666666666667,1098.140625,295C1098.140625,303.3333333333333,1098.140625,311.6666666666667,1098.140625,315.8333333333333L1098.140625,320" id="edge33" class="relation" marker-start="url(#compositionStart)"></path><path d="M1063.703125,347.14074227088065L1050.5325520833333,351.7839518924006C1037.3619791666667,356.42716151392045,1011.0208333333334,365.71358075696025,972.544921875,375.9572283967357C934.0690104166666,386.2008760365111,883.4583333333334,397.40175207302224,858.1529947916666,403.0021900912778L832.84765625,408.6026281095334" id="edge34" class="relation" marker-end="url(#dependencyEnd)"></path><path d="M791.59375,350L791.59375,354.1666666666667C791.59375,358.3333333333333,791.59375,366.6666666666667,828.27734375,376.26888348671645C864.9609375,385.8711003067662,938.328125,396.7422006135325,975.01171875,402.17775076691555L1011.6953125,407.6133009202987" id="edge35" class="relation" marker-end="url(#dependencyEnd)"></path><g class="cardinality"><text class="type2" x="1000.7960509494774" y="395.88913367254503" fill="black" font-size="6">*</text></g><path d="M497.5625,17.60366708797202L638.1809895833334,23.836389239976683C778.7994791666666,30.069111391981348,1060.0364583333333,42.53455569599067,1200.6549479166667,55.433944514661995C1341.2734375,68.33333333333333,1341.2734375,81.66666666666667,1341.2734375,95C1341.2734375,108.33333333333333,1341.2734375,121.66666666666667,1341.2734375,135C1341.2734375,148.33333333333334,1341.2734375,161.66666666666666,1341.2734375,175C1341.2734375,188.33333333333334,1341.2734375,201.66666666666666,1341.2734375,215C1341.2734375,228.33333333333334,1341.2734375,241.66666666666666,1341.2734375,255C1341.2734375,268.3333333333333,1341.2734375,281.6666666666667,1341.2734375,292.5C1341.2734375,303.3333333333333,1341.2734375,311.6666666666667,1341.2734375,315.8333333333333L1341.2734375,320" id="edge36" class="relation" marker-end="url(#dependencyEnd)"></path><path d="M1315.1435546875,350L1307.88525390625,354.1666666666667C1300.626953125,358.3333333333333,1286.1103515625,366.6666666666667,1272.9796549479167,375C1259.8489583333333,383.3333333333333,1248.1041666666667,391.6666666666667,1242.2317708333333,395.8333333333333L1236.359375,400" id="edge37" class="relation" marker-end="url(#dependencyEnd)"></path><path d="M1356.35546875,350L1360.544921875,354.1666666666667C1364.734375,358.3333333333333,1373.11328125,366.6666666666667,1374.177734375,375C1375.2421875,383.3333333333333,1368.9921875,391.6666666666667,1365.8671875,395.8333333333333L1362.7421875,400" id="edge38" class="relation" marker-end="url(#dependencyEnd)"></path><path d="M1063.703125,349.7387778985204L1053.8658854166667,353.9489815821003C1044.0286458333333,358.15918526568026,1024.3541666666667,366.5795926328401,1042.33984375,376.07583043023993C1060.3255208333333,385.5720682276399,1115.9713541666667,396.14413645527975,1143.7942708333333,401.43017056909963L1171.6171875,406.71620468291957" id="edge39" class="relation" marker-end="url(#dependencyEnd)"></path><path d="M1101.890625,350L1102.9322916666667,354.1666666666667C1103.9739583333333,358.3333333333333,1106.0572916666667,366.6666666666667,1140.5455729166667,376.3309951095273C1175.0338541666667,385.995323552388,1241.9270833333333,396.990647104776,1275.3736979166667,402.48830888096995L1308.8203125,407.98597065716393" id="edge40" class="relation" marker-end="url(#dependencyEnd)"></path><path d="M1109.390625,350L1112.515625,354.1666666666667C1115.640625,358.3333333333333,1121.890625,366.6666666666667,1118.0787760416667,375C1114.2669270833333,383.3333333333333,1100.3932291666667,391.6666666666667,1093.4563802083333,395.8333333333333L1086.51953125,400" id="edge41" class="relation" marker-end="url(#dependencyEnd)"></path><g class="classLabel"><rect class="box" x="1099.21875" y="367.953125" width="43.546875" height="16.015625"></rect><text class="label" x="1120.7245212939465" y="379.45453437059984" fill="red" text-anchor="middle">by name</text></g></svg>